<svg width="32" height="32" viewBox="0 0 32 32" fill="none" xmlns="http://www.w3.org/2000/svg">
<path d="M22.3824 0.00466405C23.4316 0.00486478 24.4092 0.00266345 25.3867 0.00575578C28.8828 0.0168147 31.6816 2.7272 31.7024 6.23527C31.7398 12.5351 31.7134 18.8353 31.7183 25.1354C31.7187 25.5794 31.6818 25.8862 31.0898 25.9315C28.3227 26.1432 26.3405 28.0716 26.0265 30.8569C25.9706 31.3524 25.8097 31.4981 25.3317 31.4971C18.8224 31.484 12.313 31.51 5.80396 31.4713C2.87769 31.4539 0.05052 28.6407 0.0318678 25.7051C-0.0102725 19.0725 -0.0112791 12.4393 0.032787 5.80668C0.0530941 2.75006 2.89305 0.0295416 6.002 0.0145806C11.4382 -0.0115792 16.8746 0.00564418 22.3824 0.00466405ZM3.26597 26.0188C3.86308 27.6695 4.87143 28.3822 6.67382 28.385C11.7284 28.3929 16.783 28.3902 21.8376 28.3913C22.7899 28.3915 23.2976 27.6468 22.9543 26.7291C22.8047 26.3292 22.6097 25.9462 22.4358 25.5552C21.5801 23.6317 21.5897 23.6423 23.1739 22.2255C23.5521 21.8873 23.8827 21.847 24.3303 22.0507C25.0886 22.3956 25.8611 22.7129 26.6415 23.0049C27.5756 23.3544 28.4936 22.731 28.4939 21.7711C28.4954 16.6837 28.4978 11.5963 28.494 6.50894C28.4925 4.4261 27.2113 3.11118 25.1232 3.10658C18.948 3.09297 12.7728 3.0944 6.59761 3.10804C4.43421 3.11282 3.14084 4.43016 3.12716 6.6024C3.11504 8.52633 3.12152 10.4504 3.12987 12.3744C3.14719 16.3659 3.17056 20.3573 3.19323 24.3488C3.19618 24.8687 3.09284 25.393 3.26597 26.0188Z" fill="#273333"/>
<path d="M22.7049 8.76269C23.1834 8.6646 23.6221 8.63212 24.0203 8.48821C24.8512 8.18789 25.3261 8.51023 25.7708 9.21073C26.6727 10.6314 26.7057 10.6105 25.7208 11.9748C25.6094 12.1292 25.5239 12.3112 25.3858 12.4357C24.3211 13.3954 24.6295 14.5724 24.8378 15.7381C24.8848 16.0011 25.081 16.1345 25.2639 16.2853C25.9067 16.8156 26.5418 17.3554 27.1947 17.8731C27.5389 18.146 27.6565 18.459 27.5029 18.8722C27.47 18.9608 27.4556 19.0561 27.4309 19.1477C26.9277 21.0153 26.9274 21.0098 25.0047 21.0832C24.4816 21.1032 23.9608 21.1786 23.4378 21.2065C23.1454 21.2221 22.986 21.4232 22.7715 21.5693C21.474 22.4531 21.3033 23.7622 21.2838 25.1785C21.2632 26.6794 21.2221 26.6789 19.774 27.1736C18.6053 27.573 18.6049 27.5733 17.7812 26.6403C17.6079 26.444 17.3941 26.2678 17.2747 26.0425C16.6006 24.7693 15.3855 24.7097 14.1727 24.6251C13.8902 24.6054 13.6731 24.7156 13.4548 24.8794C12.7693 25.3938 12.0663 25.8851 11.3839 26.4034C11.0587 26.6503 10.7602 26.6604 10.3926 26.4879C8.54373 25.6201 8.41615 25.3949 8.76861 23.434C8.79796 23.2707 8.81951 23.1007 8.88272 22.9496C9.41117 21.6866 8.53336 20.8478 7.96047 19.924C7.83231 19.7173 7.56347 19.6856 7.32949 19.6263C6.52191 19.4216 5.72067 19.1913 4.91063 18.9972C4.47705 18.8933 4.26104 18.6367 4.20846 18.2136C4.20261 18.1665 4.19293 18.1198 4.18508 18.073C3.85058 16.0751 3.85057 16.0751 5.61994 15.1093C5.70357 15.0636 5.78268 14.9988 5.87229 14.9766C7.32996 14.6152 7.44483 13.2972 7.85642 12.1976C7.94431 11.9627 7.7926 11.7325 7.69706 11.5177C7.3687 10.7792 7.04555 10.0377 6.68991 9.31225C6.49595 8.91659 6.55096 8.61499 6.8236 8.27211C8.12002 6.64168 8.23931 6.60117 10.1242 7.38257C10.3002 7.45552 10.4979 7.49812 10.6489 7.6058C11.7864 8.41675 12.7837 7.65634 13.808 7.31683C13.9706 7.26294 14.0813 7.00081 14.1795 6.81573C14.5362 6.14384 14.8768 5.46347 15.225 4.78704C15.301 4.63924 15.3523 4.46187 15.4674 4.35368C16.1677 3.6958 16.9625 4.24558 17.7122 4.2152C18.1565 4.19719 18.5287 4.38788 18.6573 4.90672C18.8457 5.66682 19.097 6.41126 19.2932 7.16964C19.4142 7.63716 19.6288 7.99641 20.1035 8.17164C20.2581 8.22871 20.42 8.30412 20.5386 8.41401C21.1661 8.99531 21.8752 9.05365 22.7049 8.76269ZM13.313 11.9027C11.4986 13.1345 10.7616 14.8268 11.1259 16.9899C11.5115 19.2791 13.6834 20.9626 16.1333 20.871C18.4921 20.7829 20.5393 18.9463 20.7588 16.7002C20.9525 14.7192 20.3071 13.0755 18.6072 11.9793C16.9272 10.8958 15.1622 10.8854 13.313 11.9027Z" fill="#273333"/>
</svg>
